<mxfile host="app.diagrams.net" modified="2021-05-12T01:44:42.576Z" agent="5.0 (Windows NT 10.0; Win64; x64) AppleWebKit/537.36 (KHTML, like Gecko) Chrome/90.0.4430.93 Safari/537.36" etag="UjEouCEcfl7HCHLsv0TP" version="14.6.12" type="github">
  <diagram id="C5RBs43oDa-KdzZeNtuy" name="Page-1">
    <mxGraphModel dx="981" dy="526" grid="1" gridSize="10" guides="1" tooltips="1" connect="1" arrows="1" fold="1" page="1" pageScale="1" pageWidth="827" pageHeight="1169" math="0" shadow="0">
      <root>
        <mxCell id="WIyWlLk6GJQsqaUBKTNV-0" />
        <mxCell id="WIyWlLk6GJQsqaUBKTNV-1" parent="WIyWlLk6GJQsqaUBKTNV-0" />
        <mxCell id="usK91qN6K6p9wJHRPfvr-52" style="edgeStyle=orthogonalEdgeStyle;rounded=0;orthogonalLoop=1;jettySize=auto;html=1;" edge="1" parent="WIyWlLk6GJQsqaUBKTNV-1" source="WIyWlLk6GJQsqaUBKTNV-3" target="usK91qN6K6p9wJHRPfvr-0">
          <mxGeometry relative="1" as="geometry" />
        </mxCell>
        <mxCell id="WIyWlLk6GJQsqaUBKTNV-3" value="엘레베이터 시작" style="rounded=1;whiteSpace=wrap;html=1;fontSize=12;glass=0;strokeWidth=1;shadow=0;" parent="WIyWlLk6GJQsqaUBKTNV-1" vertex="1">
          <mxGeometry x="160" y="80" width="120" height="40" as="geometry" />
        </mxCell>
        <mxCell id="usK91qN6K6p9wJHRPfvr-53" style="edgeStyle=orthogonalEdgeStyle;rounded=0;orthogonalLoop=1;jettySize=auto;html=1;entryX=0.5;entryY=0;entryDx=0;entryDy=0;" edge="1" parent="WIyWlLk6GJQsqaUBKTNV-1" source="usK91qN6K6p9wJHRPfvr-0" target="usK91qN6K6p9wJHRPfvr-34">
          <mxGeometry relative="1" as="geometry" />
        </mxCell>
        <mxCell id="usK91qN6K6p9wJHRPfvr-56" style="edgeStyle=orthogonalEdgeStyle;rounded=0;orthogonalLoop=1;jettySize=auto;html=1;entryX=0;entryY=0.5;entryDx=0;entryDy=0;" edge="1" parent="WIyWlLk6GJQsqaUBKTNV-1" source="usK91qN6K6p9wJHRPfvr-0" target="usK91qN6K6p9wJHRPfvr-5">
          <mxGeometry relative="1" as="geometry" />
        </mxCell>
        <mxCell id="usK91qN6K6p9wJHRPfvr-0" value="엘레베이터 &lt;br&gt;버튼 클릭" style="shape=parallelogram;perimeter=parallelogramPerimeter;whiteSpace=wrap;html=1;fixedSize=1;" vertex="1" parent="WIyWlLk6GJQsqaUBKTNV-1">
          <mxGeometry x="160" y="150" width="120" height="60" as="geometry" />
        </mxCell>
        <mxCell id="usK91qN6K6p9wJHRPfvr-59" style="edgeStyle=orthogonalEdgeStyle;rounded=0;orthogonalLoop=1;jettySize=auto;html=1;entryX=0;entryY=0.5;entryDx=0;entryDy=0;" edge="1" parent="WIyWlLk6GJQsqaUBKTNV-1" source="usK91qN6K6p9wJHRPfvr-5" target="usK91qN6K6p9wJHRPfvr-26">
          <mxGeometry relative="1" as="geometry" />
        </mxCell>
        <mxCell id="usK91qN6K6p9wJHRPfvr-5" value="선택한 층 이동 및&lt;br&gt;엘레베이터 열림" style="rounded=0;whiteSpace=wrap;html=1;" vertex="1" parent="WIyWlLk6GJQsqaUBKTNV-1">
          <mxGeometry x="360" y="150" width="120" height="60" as="geometry" />
        </mxCell>
        <mxCell id="usK91qN6K6p9wJHRPfvr-29" style="edgeStyle=orthogonalEdgeStyle;rounded=0;orthogonalLoop=1;jettySize=auto;html=1;exitX=0.5;exitY=1;exitDx=0;exitDy=0;entryX=0.5;entryY=0;entryDx=0;entryDy=0;" edge="1" parent="WIyWlLk6GJQsqaUBKTNV-1" source="usK91qN6K6p9wJHRPfvr-17" target="usK91qN6K6p9wJHRPfvr-18">
          <mxGeometry relative="1" as="geometry" />
        </mxCell>
        <mxCell id="usK91qN6K6p9wJHRPfvr-17" value="상호 작용" style="rounded=0;whiteSpace=wrap;html=1;" vertex="1" parent="WIyWlLk6GJQsqaUBKTNV-1">
          <mxGeometry x="520" y="270" width="120" height="60" as="geometry" />
        </mxCell>
        <mxCell id="usK91qN6K6p9wJHRPfvr-32" style="edgeStyle=orthogonalEdgeStyle;rounded=0;orthogonalLoop=1;jettySize=auto;html=1;entryX=0.5;entryY=0;entryDx=0;entryDy=0;" edge="1" parent="WIyWlLk6GJQsqaUBKTNV-1" source="usK91qN6K6p9wJHRPfvr-18" target="usK91qN6K6p9wJHRPfvr-31">
          <mxGeometry relative="1" as="geometry" />
        </mxCell>
        <mxCell id="usK91qN6K6p9wJHRPfvr-60" style="edgeStyle=orthogonalEdgeStyle;rounded=0;orthogonalLoop=1;jettySize=auto;html=1;entryX=1;entryY=0.5;entryDx=0;entryDy=0;" edge="1" parent="WIyWlLk6GJQsqaUBKTNV-1" source="usK91qN6K6p9wJHRPfvr-18" target="usK91qN6K6p9wJHRPfvr-17">
          <mxGeometry relative="1" as="geometry">
            <Array as="points">
              <mxPoint x="660" y="395" />
              <mxPoint x="660" y="300" />
            </Array>
          </mxGeometry>
        </mxCell>
        <mxCell id="usK91qN6K6p9wJHRPfvr-18" value="상호작용이&lt;br&gt;끝났는가?" style="rhombus;whiteSpace=wrap;html=1;" vertex="1" parent="WIyWlLk6GJQsqaUBKTNV-1">
          <mxGeometry x="525" y="360" width="110" height="70" as="geometry" />
        </mxCell>
        <mxCell id="usK91qN6K6p9wJHRPfvr-28" style="edgeStyle=orthogonalEdgeStyle;rounded=0;orthogonalLoop=1;jettySize=auto;html=1;" edge="1" parent="WIyWlLk6GJQsqaUBKTNV-1" source="usK91qN6K6p9wJHRPfvr-26" target="usK91qN6K6p9wJHRPfvr-17">
          <mxGeometry relative="1" as="geometry" />
        </mxCell>
        <mxCell id="usK91qN6K6p9wJHRPfvr-26" value="엘레베이터 &lt;br&gt;밖으로 나옴" style="rounded=0;whiteSpace=wrap;html=1;" vertex="1" parent="WIyWlLk6GJQsqaUBKTNV-1">
          <mxGeometry x="520" y="150" width="120" height="60" as="geometry" />
        </mxCell>
        <mxCell id="usK91qN6K6p9wJHRPfvr-61" style="edgeStyle=orthogonalEdgeStyle;rounded=0;orthogonalLoop=1;jettySize=auto;html=1;entryX=0;entryY=0.5;entryDx=0;entryDy=0;" edge="1" parent="WIyWlLk6GJQsqaUBKTNV-1" source="usK91qN6K6p9wJHRPfvr-31" target="usK91qN6K6p9wJHRPfvr-0">
          <mxGeometry relative="1" as="geometry">
            <Array as="points">
              <mxPoint x="580" y="630" />
              <mxPoint x="80" y="630" />
              <mxPoint x="80" y="180" />
            </Array>
          </mxGeometry>
        </mxCell>
        <mxCell id="usK91qN6K6p9wJHRPfvr-31" value="엘레베이터로 이동" style="rounded=0;whiteSpace=wrap;html=1;" vertex="1" parent="WIyWlLk6GJQsqaUBKTNV-1">
          <mxGeometry x="520" y="460" width="120" height="60" as="geometry" />
        </mxCell>
        <mxCell id="usK91qN6K6p9wJHRPfvr-54" style="edgeStyle=orthogonalEdgeStyle;rounded=0;orthogonalLoop=1;jettySize=auto;html=1;entryX=0.5;entryY=0;entryDx=0;entryDy=0;" edge="1" parent="WIyWlLk6GJQsqaUBKTNV-1" source="usK91qN6K6p9wJHRPfvr-34" target="usK91qN6K6p9wJHRPfvr-47">
          <mxGeometry relative="1" as="geometry" />
        </mxCell>
        <mxCell id="usK91qN6K6p9wJHRPfvr-34" value="버튼을 3번이상&lt;br&gt;&amp;nbsp;눌렀는가?" style="rhombus;whiteSpace=wrap;html=1;" vertex="1" parent="WIyWlLk6GJQsqaUBKTNV-1">
          <mxGeometry x="165" y="240" width="110" height="70" as="geometry" />
        </mxCell>
        <mxCell id="usK91qN6K6p9wJHRPfvr-39" style="edgeStyle=orthogonalEdgeStyle;rounded=0;orthogonalLoop=1;jettySize=auto;html=1;entryX=0.5;entryY=0;entryDx=0;entryDy=0;" edge="1" parent="WIyWlLk6GJQsqaUBKTNV-1" source="usK91qN6K6p9wJHRPfvr-36" target="usK91qN6K6p9wJHRPfvr-38">
          <mxGeometry relative="1" as="geometry" />
        </mxCell>
        <mxCell id="usK91qN6K6p9wJHRPfvr-58" style="edgeStyle=orthogonalEdgeStyle;rounded=0;orthogonalLoop=1;jettySize=auto;html=1;entryX=0.5;entryY=1;entryDx=0;entryDy=0;" edge="1" parent="WIyWlLk6GJQsqaUBKTNV-1" source="usK91qN6K6p9wJHRPfvr-36" target="usK91qN6K6p9wJHRPfvr-5">
          <mxGeometry relative="1" as="geometry" />
        </mxCell>
        <mxCell id="usK91qN6K6p9wJHRPfvr-36" value="마지막 층을&lt;br&gt;&amp;nbsp;눌렀는가?" style="rhombus;whiteSpace=wrap;html=1;" vertex="1" parent="WIyWlLk6GJQsqaUBKTNV-1">
          <mxGeometry x="165" y="410" width="110" height="70" as="geometry" />
        </mxCell>
        <mxCell id="usK91qN6K6p9wJHRPfvr-38" value="마지막 층으로 이동&lt;br&gt;및 텍스트 출력" style="shape=document;whiteSpace=wrap;html=1;boundedLbl=1;" vertex="1" parent="WIyWlLk6GJQsqaUBKTNV-1">
          <mxGeometry x="160" y="520" width="120" height="80" as="geometry" />
        </mxCell>
        <mxCell id="usK91qN6K6p9wJHRPfvr-49" style="edgeStyle=orthogonalEdgeStyle;rounded=0;orthogonalLoop=1;jettySize=auto;html=1;" edge="1" parent="WIyWlLk6GJQsqaUBKTNV-1" source="usK91qN6K6p9wJHRPfvr-47" target="usK91qN6K6p9wJHRPfvr-36">
          <mxGeometry relative="1" as="geometry" />
        </mxCell>
        <mxCell id="usK91qN6K6p9wJHRPfvr-47" value="마지막층 활성화" style="rounded=0;whiteSpace=wrap;html=1;" vertex="1" parent="WIyWlLk6GJQsqaUBKTNV-1">
          <mxGeometry x="160" y="330" width="120" height="60" as="geometry" />
        </mxCell>
      </root>
    </mxGraphModel>
  </diagram>
</mxfile>
